<svg width="44" height="45" viewBox="0 0 44 45" fill="none" xmlns="http://www.w3.org/2000/svg">
    <mask id="path-1-outside-1_208_346" maskUnits="userSpaceOnUse" x="0" y="0" width="44"
        height="45" fill="black">
        <rect fill="white" width="44" height="45" />
        <path
            d="M2 4C2 2.34315 3.34315 1 5 1H39C40.6569 1 42 2.34315 42 4V38C42 39.6569 40.6569 41 39 41H5C3.34315 41 2 39.6569 2 38V4Z" />
    </mask>
    <path
        d="M2 4C2 2.34315 3.34315 1 5 1H39C40.6569 1 42 2.34315 42 4V38C42 39.6569 40.6569 41 39 41H5C3.34315 41 2 39.6569 2 38V4Z"
        fill="#E5E4E6" />
    <path
        d="M0 4C0 1.79086 1.79086 0 4 0H40C42.2091 0 44 1.79086 44 4H40C40 2.89543 39.5523 2 39 2H5C4.44772 2 4 2.89543 4 4H0ZM44 40C44 42.7614 41.7614 45 39 45H5C2.23858 45 0 42.7614 0 40L4 37C4 37 4.44772 37 5 37H39C39.5523 37 40 37 40 37L44 40ZM5 45C2.23858 45 0 42.7614 0 40V4C0 1.79086 1.79086 0 4 0L5 2C4.44772 2 4 2.89543 4 4V37C4 37 4.44772 37 5 37V45ZM40 0C42.2091 0 44 1.79086 44 4V40C44 42.7614 41.7614 45 39 45V37C39.5523 37 40 37 40 37V4C40 2.89543 39.5523 2 39 2L40 0Z"
        fill="#191125" mask="url(#path-1-outside-1_208_346)" />
    <path
        d="M22.088 33.32C20.5733 33.32 19.176 33.16 17.896 32.84C16.6373 32.4987 15.4853 32.0187 14.44 31.4C13.416 30.7813 12.488 30.0027 11.656 29.064L14.12 25.8C15.4213 27.2293 16.7227 28.2427 18.024 28.84C19.3467 29.416 20.7653 29.704 22.28 29.704C23.1547 29.704 23.976 29.5973 24.744 29.384C25.5333 29.1493 26.1733 28.8187 26.664 28.392C27.176 27.944 27.432 27.4 27.432 26.76C27.432 26.3333 27.304 25.9707 27.048 25.672C26.8133 25.352 26.4827 25.0853 26.056 24.872C25.6507 24.6373 25.1813 24.4453 24.648 24.296C24.1147 24.1467 23.56 24.0187 22.984 23.912C22.408 23.8053 21.832 23.7093 21.256 23.624C19.912 23.4107 18.7173 23.1333 17.672 22.792C16.6267 22.4293 15.7413 21.9707 15.016 21.416C14.2907 20.8613 13.736 20.2107 13.352 19.464C12.9893 18.7173 12.808 17.8533 12.808 16.872C12.808 15.848 13.0427 14.9307 13.512 14.12C13.9813 13.288 14.6427 12.584 15.496 12.008C16.3493 11.432 17.3307 10.9947 18.44 10.696C19.5707 10.376 20.7973 10.216 22.12 10.216C23.528 10.216 24.7973 10.3653 25.928 10.664C27.08 10.9627 28.0933 11.4 28.968 11.976C29.8427 12.5307 30.5787 13.2027 31.176 13.992L28.584 16.84C28.0507 16.2 27.432 15.656 26.728 15.208C26.0453 14.76 25.3093 14.4293 24.52 14.216C23.7307 13.9813 22.8987 13.864 22.024 13.864C21.0853 13.864 20.2533 13.9707 19.528 14.184C18.8027 14.3973 18.2267 14.7067 17.8 15.112C17.3733 15.5173 17.16 16.008 17.16 16.584C17.16 17.0533 17.2987 17.4693 17.576 17.832C17.8533 18.1733 18.2373 18.472 18.728 18.728C19.24 18.9627 19.8373 19.1653 20.52 19.336C21.2027 19.4853 21.9493 19.624 22.76 19.752C23.9973 19.944 25.16 20.1893 26.248 20.488C27.336 20.7867 28.296 21.1813 29.128 21.672C29.96 22.1413 30.6 22.7387 31.048 23.464C31.5173 24.168 31.752 25.0533 31.752 26.12C31.752 27.592 31.3467 28.872 30.536 29.96C29.7253 31.0267 28.5947 31.8587 27.144 32.456C25.7147 33.032 24.0293 33.32 22.088 33.32Z"
        fill="#191125" />
</svg>